<svg width="22" height="15" viewBox="0 0 22 15" fill="none" xmlns="http://www.w3.org/2000/svg">
<g clip-path="url(#clip0_89_1416)">
<path fill-rule="evenodd" clip-rule="evenodd" d="M14.0903 3.216H19.4848V1.6493H14.0903V3.216ZM16.7494 6.36252C15.546 6.36252 14.6321 7.11861 14.5441 8.51569H18.8614C18.5688 6.85763 17.8425 6.36252 16.7494 6.36252ZM16.918 12.8425C18.0291 12.8425 18.8445 12.1307 19.0109 11.531H21.3477C20.6797 13.6999 19.3004 14.9179 16.8236 14.9179C13.663 14.9179 11.8892 12.6381 11.8892 9.61301C11.8892 2.48882 22.0252 2.23341 21.5163 10.2782H14.5441C14.6119 11.9118 15.2767 12.8425 16.918 12.8425ZM6.40239 12.529C7.67788 12.529 8.57061 12.0315 8.57061 10.6888C8.57061 9.29618 7.78178 8.6921 6.45753 8.6921H3.26193V12.529H6.40239ZM6.23381 6.59774C7.29512 6.59774 8.02776 6.09672 8.02776 4.93286C8.02776 3.70682 7.17532 3.32836 6.0101 3.32836H3.26193V6.59774H6.23381ZM6.60808 0.939453C9.12194 0.939453 10.8692 1.78214 10.8692 4.40415C10.8692 5.70239 10.355 6.66987 9.05621 7.32176C10.7187 7.82262 11.5054 9.13773 11.5054 10.8657C11.5054 13.6088 9.36049 14.9179 6.79468 14.9179H0.327148V0.939453H6.60808Z" fill="white"/>
</g>
<defs>
<clipPath id="clip0_89_1416">
<rect width="21.205" height="13.943" fill="white" transform="translate(0.328125 0.958984)"/>
</clipPath>
</defs>
</svg>
