<svg width="15" height="15" viewBox="0 0 15 15" fill="none" xmlns="http://www.w3.org/2000/svg">
<path d="M3.79443 8.20577V6.4558M3.79443 2.85291V2.64703C3.79443 1.7374 4.53184 1 5.44147 1H12.8531C13.7627 1 14.5001 1.7374 14.5001 2.64703V10.0587C14.5001 10.9683 13.7627 11.7057 12.8531 11.7057H12.7389" stroke="#808080" stroke-width="0.823517"/>
<path d="M0.911758 5.94098C0.911758 5.25875 1.46481 4.7057 2.14703 4.7057H9.55868C10.2409 4.7057 10.794 5.25875 10.794 5.94098V7.99977V9.85268V11.7056V13.3526C10.794 14.0349 10.2409 14.5879 9.55868 14.5879H2.14703C1.46481 14.5879 0.911758 14.0349 0.911758 13.3526V5.94098Z" fill="white" stroke="#808080" stroke-width="0.823517"/>
</svg>
