<svg width="765" height="312" viewBox="0 0 765 312" fill="none" xmlns="http://www.w3.org/2000/svg">
<path d="M141.856 106.778C139.006 113.385 135.313 119.344 130.779 124.656C126.375 129.838 121.322 134.307 115.622 138.064C109.922 141.691 103.639 144.477 96.7728 146.42C90.0363 148.363 82.9759 149.335 75.5916 149.335C65.0982 149.335 55.2525 147.391 46.0545 143.505C36.8566 139.619 28.8246 134.307 21.9585 127.571C15.222 120.834 9.84569 112.932 5.82969 103.863C1.94323 94.6652 0 84.8843 0 74.5204C0 64.4156 1.94323 54.8938 5.82969 45.955C9.71614 36.8866 14.9629 29.0489 21.5698 22.4419C28.3064 15.7054 36.1441 10.3939 45.0829 6.50741C54.1513 2.62096 63.7379 0.677734 73.8427 0.677734C89.1294 0.677734 102.732 4.49942 114.651 12.1428C126.569 19.7862 135.637 30.5387 141.856 44.4004H112.124C107.201 38.0525 101.76 33.4535 95.8012 30.6035C89.9715 27.7534 82.8463 26.3284 74.4257 26.3284C67.6891 26.3284 61.406 27.5591 55.5763 30.0205C49.7467 32.4819 44.6943 35.9149 40.4192 40.3196C36.1441 44.5947 32.7758 49.7119 30.3144 55.6711C27.9825 61.5008 26.8166 67.8487 26.8166 74.7147C26.8166 81.4513 28.0473 87.7991 30.5087 93.7584C33.0997 99.7176 36.5975 104.9 41.0021 109.304C45.4068 113.709 50.5239 117.207 56.3536 119.798C62.1833 122.389 68.4017 123.684 75.0086 123.684C81.8747 123.684 88.0283 122.389 93.4693 119.798C98.9103 117.207 104.61 112.867 110.57 106.778H141.856Z" fill="#232DFC" fill-opacity="0.18"/>
<path d="M381.776 136.509C376.853 141.303 372.059 144.671 367.396 146.614C362.861 148.428 357.356 149.335 350.878 149.335C337.276 149.335 327.041 144.93 320.175 136.121C313.309 127.311 309.876 114.227 309.876 96.8676V39.1537H335.721V91.8152C335.721 103.863 337.276 112.543 340.385 117.854C343.624 123.036 348.87 125.627 356.125 125.627C364.675 125.627 370.764 122.907 374.391 117.466C378.019 112.025 379.832 102.827 379.832 89.8719V39.1537H405.677V146.809H381.776V136.509Z" fill="#232DFC" fill-opacity="0.18"/>
<path d="M426.593 39.1537H450.495V49.4528C455.288 44.789 459.952 41.4855 464.486 39.5423C469.15 37.5991 474.591 36.6275 480.809 36.6275C495.189 36.6275 505.682 40.8378 512.289 49.2584C518.896 57.6791 522.2 70.9578 522.2 89.0946V146.809H496.355V94.147C496.355 82.099 494.735 73.484 491.497 68.3021C488.387 62.9906 483.141 60.3349 475.756 60.3349C467.595 60.3349 461.636 63.1849 457.879 68.8851C454.251 74.4556 452.438 83.524 452.438 96.0903V146.809H426.593V39.1537Z" fill="#232DFC" fill-opacity="0.18"/>
<path d="M547.395 62.6667H534.764V39.1537H547.395V3.20393H573.24V39.1537H588.786V62.6667H573.24V146.809H547.395V62.6667Z" fill="#232DFC" fill-opacity="0.18"/>
<path d="M601.559 39.1537H625.267V49.6471C627.08 47.0561 628.765 44.9186 630.319 43.2344C631.874 41.5503 633.623 40.2548 635.566 39.348C637.509 38.3116 639.647 37.5991 641.978 37.2104C644.44 36.8218 647.29 36.6275 650.529 36.6275V61.5008C635.112 61.5008 627.404 69.9862 627.404 86.9571V146.809H601.559V39.1537Z" fill="#232DFC" fill-opacity="0.18"/>
<path d="M695.238 136.704L655.791 39.1537H685.328L709.229 108.916L735.269 39.1537H765L702.817 182.758H675.029L695.238 136.704Z" fill="#232DFC" fill-opacity="0.18"/>
<path d="M6.8013 165.025H33.4235V222.933H84.7248V165.025H111.347V308.63H84.7248V248.389H33.4235V308.63H6.8013V165.025Z" fill="#232DFC" fill-opacity="0.18"/>
<path d="M207.087 298.33C202.165 303.124 197.371 306.492 192.708 308.435C188.173 310.249 182.668 311.156 176.19 311.156C162.588 311.156 152.353 306.751 145.487 297.942C138.621 289.133 135.188 276.048 135.188 258.689V200.975H161.033V253.636C161.033 265.684 162.588 274.364 165.697 279.675C168.935 284.857 174.182 287.448 181.437 287.448C189.987 287.448 196.076 284.728 199.703 279.287C203.331 273.846 205.144 264.648 205.144 251.693V200.975H230.989V308.63H207.087V298.33Z" fill="#232DFC" fill-opacity="0.18"/>
<path d="M251.905 200.975H275.806V211.274C280.6 206.61 285.263 203.307 289.798 201.363C294.461 199.42 299.902 198.449 306.121 198.449C320.501 198.449 330.994 202.659 337.601 211.079C344.208 219.5 347.512 232.779 347.512 250.916V308.63H321.667V255.968C321.667 243.92 320.047 235.305 316.809 230.123C313.699 224.812 308.453 222.156 301.068 222.156C292.907 222.156 286.948 225.006 283.191 230.706C279.563 236.277 277.75 245.345 277.75 257.911V308.63H251.905V200.975Z" fill="#232DFC" fill-opacity="0.18"/>
<path d="M372.707 224.488H360.076V200.975H372.707V165.025H398.552V200.975H414.098V224.488H398.552V308.63H372.707V224.488Z" fill="#232DFC" fill-opacity="0.18"/>
<path d="M161.255 38.1226H166.425C186.73 38.1226 203.19 54.5829 203.19 74.8876V145.289H198.02C177.716 145.289 161.255 128.828 161.255 108.524V38.1226Z" fill="#232DFC"/>
<path d="M296.379 38.1226H291.21C270.905 38.1226 254.444 54.5829 254.444 74.8876V145.289H259.614C279.919 145.289 296.379 128.828 296.379 108.524V38.1226Z" fill="#232DFC"/>
<path d="M207.321 93.4H213.55C233.854 93.4 250.315 109.86 250.315 130.165V145.607C248.123 145.607 246.057 145.607 244.083 145.607C223.779 145.607 207.321 129.147 207.321 108.842V93.4Z" fill="#00E317"/>
<path d="M250.314 38.1226H245.013C224.195 38.1226 207.319 54.999 207.319 75.8171V90.3295C209.17 90.3295 210.932 90.3295 212.623 90.3295C233.442 90.3295 250.314 73.4531 250.314 52.635V38.1226Z" fill="#232DFC"/>
</svg>
