<svg width="37" height="30" viewBox="0 0 37 30" fill="none" xmlns="http://www.w3.org/2000/svg">
<path d="M0.570801 0.589844H1.95168C7.37541 0.589844 11.7722 4.98665 11.7722 10.4104V29.2157H10.3913C4.96761 29.2157 0.570801 24.8189 0.570801 19.3951V0.589844Z" fill="white"/>
<path d="M36.6655 0.589844H35.2847C29.8609 0.589844 25.4641 4.98665 25.4641 10.4104V29.2157H26.845C32.2687 29.2157 36.6655 24.8189 36.6655 19.3951V0.589844Z" fill="white"/>
<path d="M12.8755 15.3555H14.5393C19.9631 15.3555 24.3599 19.7523 24.3599 25.176V29.3008C23.7744 29.3008 23.2225 29.3008 22.6954 29.3008C17.2717 29.3008 12.8755 24.904 12.8755 19.4802V15.3555Z" fill="white"/>
<path d="M24.3599 0.589844H22.9441C17.3832 0.589844 12.8753 5.09781 12.8753 10.6587V14.5352C13.3698 14.5352 13.8403 14.5352 14.2922 14.5352C19.853 14.5352 24.3599 10.0272 24.3599 4.46634V0.589844Z" fill="white"/>
</svg>
