<svg width="26" height="22" viewBox="0 0 26 22" fill="none" xmlns="http://www.w3.org/2000/svg">
<g clip-path="url(#clip0_92_2821)">
<path fill-rule="evenodd" clip-rule="evenodd" d="M19.9634 0.328125H2.34508C1.86325 0.328125 1.40115 0.51914 1.06044 0.85915C0.719729 1.19916 0.52832 1.66031 0.52832 2.14116L0.52832 19.7201C0.52832 20.201 0.719729 20.6621 1.06044 21.0021C1.40115 21.3422 1.86325 21.5332 2.34508 21.5332H19.9634C20.4447 21.5323 20.906 21.3409 21.246 21.001C21.5861 20.6611 21.777 20.2004 21.777 19.7201V2.14116C21.777 1.66086 21.5861 1.20019 21.246 0.860273C20.906 0.520355 20.4447 0.328968 19.9634 0.328125ZM20.3672 13.9661C20.366 15.5985 19.7154 17.1636 18.5583 18.3174C17.4011 19.4711 15.8323 20.1191 14.1965 20.1188H8.12261C6.48718 20.1188 4.91871 19.4706 3.76213 18.3167C2.60556 17.1628 1.95559 15.5977 1.95517 13.9656V7.89196C1.9551 7.08374 2.11459 6.28342 2.42452 5.53672C2.73445 4.79001 3.18875 4.11156 3.76148 3.54011C4.33421 2.96866 5.01414 2.5154 5.76243 2.20624C6.51072 1.89707 7.31272 1.73805 8.12261 1.73826H14.2098C15.8455 1.73854 17.4142 2.38685 18.5711 3.54072C19.7281 4.6946 20.3787 6.25964 20.3799 7.89196L20.3661 13.9656L20.3672 13.9661Z" fill="white"/>
<path d="M24.2773 0.328197C24.5078 0.328727 24.7347 0.387571 24.936 0.498897C25.1469 0.610224 25.3206 0.780394 25.4353 0.988204C25.5509 1.19002 25.6116 1.41843 25.6116 1.65086C25.6116 1.88329 25.5509 2.1117 25.4353 2.31352C25.3201 2.52027 25.1485 2.69097 24.9392 2.80548C24.7361 2.91925 24.507 2.97895 24.2741 2.97883C24.0469 2.97442 23.8244 2.91376 23.6265 2.80229C23.419 2.688 23.2481 2.51745 23.1336 2.31034C23.0167 2.10899 22.9551 1.8804 22.9551 1.64768C22.9551 1.41496 23.0167 1.18637 23.1336 0.985023C23.2467 0.776153 23.4178 0.603332 23.6265 0.487235C23.8266 0.380554 24.0504 0.325861 24.2773 0.328197ZM24.2773 0.545548C24.0852 0.547074 23.8965 0.596651 23.7285 0.689743C23.5532 0.783575 23.4087 0.925119 23.3115 1.09794C23.2149 1.26618 23.1641 1.4567 23.1641 1.6506C23.1641 1.84449 23.2149 2.03502 23.3115 2.20325C23.4072 2.37554 23.5511 2.51709 23.7259 2.61145C23.8945 2.70835 24.0856 2.75935 24.2802 2.75935C24.4748 2.75935 24.6659 2.70835 24.8345 2.61145C25.0088 2.51709 25.1527 2.37554 25.2489 2.20325C25.3455 2.03502 25.3963 1.84449 25.3963 1.6506C25.3963 1.4567 25.3455 1.26618 25.2489 1.09794C25.1523 0.924382 25.0072 0.78257 24.8313 0.689743C24.6618 0.59579 24.4712 0.546185 24.2773 0.545548ZM23.7461 2.33366V0.907094H24.239C24.3628 0.901263 24.4871 0.913986 24.6066 0.944203C24.681 0.969119 24.7448 1.01842 24.7873 1.08363C24.8227 1.13511 24.8447 1.19454 24.8515 1.25661C24.8583 1.31869 24.8495 1.38147 24.826 1.43934C24.8065 1.4862 24.7776 1.52859 24.741 1.56392C24.664 1.64307 24.5594 1.68958 24.4489 1.6938C24.494 1.71133 24.5355 1.73683 24.5716 1.76908C24.6529 1.85814 24.7246 1.95462 24.7846 2.05853L24.9599 2.34798H24.6677L24.5402 2.12214C24.4798 1.99778 24.3976 1.88521 24.2975 1.78975C24.2421 1.754 24.1768 1.73673 24.111 1.74045H23.974V2.34798L23.7461 2.33366ZM23.9766 1.52893H24.2688C24.3641 1.53889 24.4601 1.51768 24.5424 1.4685C24.5667 1.45041 24.5862 1.42677 24.5995 1.39955C24.6127 1.37233 24.6192 1.34234 24.6183 1.31211C24.6198 1.27116 24.6064 1.23105 24.5806 1.19919C24.5569 1.16502 24.5234 1.13879 24.4845 1.12392C24.4086 1.10224 24.3295 1.09346 24.2507 1.09794H23.9851L23.9766 1.52893Z" fill="white"/>
</g>
<defs>
<clipPath id="clip0_92_2821">
<rect width="25.0833" height="21.205" fill="white" transform="translate(0.52832 0.328125)"/>
</clipPath>
</defs>
</svg>
