<svg width="22" height="22" viewBox="0 0 22 22" fill="none" xmlns="http://www.w3.org/2000/svg">
<g clip-path="url(#clip0_92_2845)">
<path fill-rule="evenodd" clip-rule="evenodd" d="M10.9299 0.443359C4.97439 0.443359 0.144531 5.28046 0.144531 11.2477C0.144531 16.0205 3.23488 20.0703 7.52107 21.4997C8.06075 21.5984 8.2574 21.2647 8.2574 20.9783C8.2574 20.7216 8.24814 20.0425 8.24284 19.1411C5.24257 19.7938 4.60953 17.6926 4.60953 17.6926C4.11886 16.4444 3.41167 16.1119 3.41167 16.1119C2.43232 15.4421 3.48583 15.4554 3.48583 15.4554C4.56848 15.5316 5.13793 16.569 5.13793 16.569C6.10006 18.2198 7.66279 17.7429 8.27727 17.4664C8.37527 16.7686 8.65405 16.2924 8.96196 16.0224C6.56689 15.7492 4.04867 14.8227 4.04867 10.6827C4.04867 9.50273 4.46915 8.53902 5.15913 7.78359C5.04789 7.51032 4.67774 6.41196 5.26508 4.92429C5.26508 4.92429 6.17025 4.63378 8.23092 6.03124C9.09107 5.79181 10.0141 5.67243 10.9312 5.66778C11.8477 5.67243 12.7701 5.79181 13.6316 6.03124C15.6909 4.63378 16.5947 4.92429 16.5947 4.92429C17.1835 6.41196 16.8133 7.51032 16.7027 7.78359C17.394 8.53902 17.8112 9.50273 17.8112 10.6827C17.8112 14.8333 15.289 15.7466 12.8866 16.0138C13.2733 16.3475 13.6183 17.0068 13.6183 18.0149C13.6183 19.4588 13.6051 20.6241 13.6051 20.9783C13.6051 21.2675 13.7998 21.6038 14.3467 21.4982C18.6297 20.0664 21.7173 16.0198 21.7173 11.2477C21.7173 5.28046 16.8875 0.443359 10.9299 0.443359Z" fill="white"/>
</g>
<defs>
<clipPath id="clip0_92_2845">
<rect width="21.8024" height="21.205" fill="white" transform="translate(0.0292969 0.328125)"/>
</clipPath>
</defs>
</svg>
