<svg width="19" height="18" viewBox="0 0 19 18" fill="none" xmlns="http://www.w3.org/2000/svg">
<path d="M9.69629 7.3252V10.8107H14.6388C14.4217 11.9316 13.7704 12.8807 12.7937 13.5189L15.7742 15.7853C17.5107 14.2144 18.5126 11.9071 18.5126 9.1662C18.5126 8.52803 18.4541 7.91433 18.3456 7.32529L9.69629 7.3252Z" fill="#4285F4"/>
<path d="M4.52432 10.7129L3.85211 11.2172L1.47266 13.0335C2.98379 15.9708 6.08096 17.9999 9.67092 17.9999C12.1505 17.9999 14.2293 17.1981 15.7488 15.8235L12.7683 13.5572C11.9501 14.0972 10.9065 14.4245 9.67092 14.4245C7.28318 14.4245 5.25448 12.8454 4.52808 10.7181L4.52432 10.7129Z" fill="#34A853"/>
<path d="M1.47239 4.9668C0.846266 6.17766 0.487305 7.54404 0.487305 9.00038C0.487305 10.4567 0.846266 11.8231 1.47239 13.034C1.47239 13.0421 4.52811 10.7103 4.52811 10.7103C4.34443 10.1703 4.23587 9.59764 4.23587 9.00029C4.23587 8.40294 4.34443 7.83025 4.52811 7.29025L1.47239 4.9668Z" fill="#FBBC05"/>
<path d="M9.67111 3.58364C11.0236 3.58364 12.2258 4.04181 13.186 4.92546L15.8158 2.34822C14.2212 0.891875 12.1507 0 9.67111 0C6.08115 0 2.98379 2.02091 1.47266 4.96638L4.52828 7.29002C5.25458 5.16272 7.28336 3.58364 9.67111 3.58364Z" fill="#EA4335"/>
</svg>
