<svg width="42" height="42" viewBox="0 0 42 42" fill="none" xmlns="http://www.w3.org/2000/svg">
<rect width="42" height="42" fill="#232DFC"/>
<path d="M4.40158 21.5153C3.84043 20.261 3.96241 18.8064 4.72465 17.663L8.5 12L36 26.5L32.8627 32.3824C32.315 33.4094 31.347 34.1469 30.2114 34.4024L15.9911 37.602C13.6694 38.1244 11.3012 36.9381 10.3294 34.7658L4.40158 21.5153Z" fill="black"/>
<rect width="23" height="23" rx="4" transform="matrix(0.970296 -0.241922 0.390731 0.920505 6 12.5645)" fill="white"/>
<path d="M17.5162 17.0064L19.3325 16.5535L22.5819 24.2084L20.7655 24.6613L19.387 21.4137L16.3364 22.1743L17.7149 25.4219L15.8985 25.8748L12.6492 18.2198L14.4655 17.767L15.7081 20.6942L18.7587 19.9336L17.5162 17.0064ZM23.7007 15.3667C24.9038 15.0667 25.9135 15.0389 26.7297 15.2833C27.5428 15.5203 28.1431 16.0954 28.5307 17.0085C28.9215 17.929 28.8783 18.6767 28.4013 19.2517C27.9212 19.8193 27.0757 20.2541 25.8648 20.556L25.2942 20.6982L26.382 23.2609L24.5656 23.7138L21.3632 16.1693C21.7278 15.997 22.1251 15.8409 22.5551 15.7012C22.985 15.5614 23.3669 15.4499 23.7007 15.3667ZM24.4407 16.8068C24.3087 16.8397 24.1784 16.8762 24.0495 16.9165C23.9284 16.9548 23.8229 16.9893 23.7329 17.0199L24.6706 19.2291L25.2412 19.0868C25.8699 18.9301 26.309 18.731 26.5585 18.4897C26.808 18.2483 26.839 17.9067 26.6514 17.4649C26.5608 17.2513 26.4431 17.0852 26.2983 16.9666C26.1613 16.846 25.998 16.7646 25.8083 16.7223C25.6233 16.6707 25.4159 16.6573 25.1861 16.682C24.9531 16.6994 24.7046 16.741 24.4407 16.8068Z" fill="#232DFC"/>
</svg>
