<svg width="159" height="35" viewBox="0 0 159 35" fill="none" xmlns="http://www.w3.org/2000/svg">
<path d="M13.2764 -0.000976562H11.6398C5.21164 -0.000976562 0.000608444 5.21005 0.000608444 11.6382V33.9259H1.6372C8.06534 33.9259 13.2764 28.7149 13.2764 22.2868V-0.000976562Z" fill="#232DFC"/>
<path d="M14.249 -0.000976562H15.8856C22.3138 -0.000976562 27.5248 5.21005 27.5248 11.6382V33.9259H25.8882C19.4601 33.9259 14.249 28.7149 14.249 22.2868V-0.000976562Z" fill="#232DFC"/>
<path d="M28.4971 34.0264H29.4968C35.9249 34.0264 41.136 28.8153 41.136 22.3872V-0.00140762H40.1362C33.7081 -0.00140762 28.4971 5.20962 28.4971 11.6378V34.0264Z" fill="#232DFC"/>
<path d="M68.6301 23.4639V14.4663H57.0921V23.4639H53.4402V4.93956H57.0921V11.079H68.6301V4.93956H72.282V23.4639H68.6301ZM92.7828 9.46478V23.4639H89.1838V21.6908C87.8606 23.014 85.9553 23.7285 83.6265 23.7285C79.657 23.7285 77.1165 21.3203 77.1165 17.933V9.46478H80.7156V17.1921C80.7156 19.2827 82.0123 20.4206 84.4998 20.4206C87.0403 20.4206 89.078 19.1503 89.1838 16.6628V9.46478H92.7828ZM109.401 23.4639V15.7366C109.401 13.646 108.104 12.5081 105.616 12.5081C103.049 12.5081 101.038 13.8048 100.932 16.2923V23.4639H97.3333V9.46478H100.932V11.2378C102.229 9.91466 104.134 9.20015 106.49 9.20015C110.459 9.20015 113 11.6083 113 14.9956V23.4639H109.401ZM115.486 12.9579V9.72941H118.159V7.63881L121.758 4.99249V9.72941H124.88V12.9579H121.758V18.3035C121.758 19.8119 122.181 20.3412 123.266 20.3412C123.981 20.3412 124.457 20.2618 125.066 20.156L124.51 23.4374C123.954 23.5697 123.213 23.6756 122.499 23.6756C119.482 23.6756 118.159 22.0084 118.159 18.5682V12.9579H115.486ZM139.723 4.93956L148.72 23.4639H144.751L141.866 17.5626H133.266L130.408 23.4639H126.491L135.489 4.93956H139.723ZM137.579 8.69735L134.854 14.3076H140.305L137.579 8.69735ZM151.98 23.4639V4.93956H155.632V23.4639H151.98Z" fill="#232DFC"/>
</svg>
