<svg width="42" height="42" viewBox="0 0 42 42" fill="none" xmlns="http://www.w3.org/2000/svg">
<rect width="42" height="42" fill="#232DFC"/>
<path d="M10 13.8333C14.2342 15.9504 19.3829 14.2342 21.5 10C23.6171 14.2342 28.7658 15.9504 33 13.8333C33 21.0179 29.4093 27.7271 23.4314 31.7124L21.5 33L19.5686 31.7124C13.5907 27.7271 10 21.0179 10 13.8333Z" fill="white"/>
<rect x="17" y="18.5" width="8" height="7" rx="1.5" fill="black"/>
<rect x="20" y="21" width="2" height="2" rx="0.5" fill="white"/>
<path d="M18.5 19V17.5C18.5 16.9477 18.9477 16.5 19.5 16.5H22.5C23.0523 16.5 23.5 16.9477 23.5 17.5V19" stroke="black"/>
</svg>
