<svg width="18" height="15" viewBox="0 0 18 15" fill="none" xmlns="http://www.w3.org/2000/svg">
<path fill-rule="evenodd" clip-rule="evenodd" d="M1.82498 6.54602C6.2971 4.60981 9.27922 3.33334 10.7713 2.71662C15.0316 0.95574 15.9169 0.649857 16.4938 0.639756C16.6207 0.637535 16.9045 0.668788 17.0883 0.816993C17.2435 0.942135 17.2862 1.11118 17.3066 1.22983C17.3271 1.34848 17.3525 1.61876 17.3323 1.82996C17.1014 4.24046 16.1025 10.0901 15.5943 12.7899C15.3792 13.9323 14.9558 14.3154 14.5459 14.3529C13.655 14.4343 12.9785 13.7678 12.1157 13.2057C10.7655 12.3262 10.0027 11.7787 8.69214 10.9205C7.17753 9.92866 8.15939 9.38353 9.02256 8.49263C9.24845 8.25948 13.1736 4.71164 13.2496 4.38979C13.2591 4.34954 13.2679 4.1995 13.1782 4.12027C13.0885 4.04105 12.9561 4.06814 12.8606 4.08969C12.7252 4.12023 10.5682 5.53694 6.38979 8.33981C5.77755 8.75758 5.22301 8.96113 4.72615 8.95046C4.17841 8.9387 3.12477 8.6427 2.3415 8.38969C1.38079 8.07936 0.617235 7.91529 0.683724 7.38825C0.718355 7.11374 1.09877 6.83299 1.82498 6.54602Z" fill="white"/>
</svg>
