<svg width="16" height="16" viewBox="0 0 16 16" fill="none" xmlns="http://www.w3.org/2000/svg">
<path d="M2.02235 0.639648H8.01016H13.998C14.7503 0.639648 15.3602 1.24953 15.3602 2.00185V4.17745C15.3602 4.92977 14.7503 5.53965 13.998 5.53965H11.8224C11.07 5.53965 10.4602 6.14953 10.4602 6.90185V13.9775C10.4602 14.7298 9.85028 15.3396 9.09796 15.3396H8.01016H6.92235C6.17003 15.3396 5.56016 14.7298 5.56016 13.9774V6.90185C5.56016 6.14953 4.95028 5.53965 4.19796 5.53965H2.02235C1.27003 5.53965 0.660156 4.92977 0.660156 4.17745V2.00185C0.660156 1.24953 1.27003 0.639648 2.02235 0.639648Z" fill="white"/>
</svg>
