<svg width="42" height="42" viewBox="0 0 42 42" fill="none" xmlns="http://www.w3.org/2000/svg">
<rect width="42" height="42" fill="#232DFC"/>
<path d="M20.2108 19.1587C20.6112 18.644 21.3892 18.644 21.7895 19.1587L29.7449 29.387C30.2558 30.0439 29.7877 31.001 28.9555 31.001H13.0448C12.2127 31.001 11.7446 30.0439 12.2555 29.387L20.2108 19.1587Z" fill="white"/>
<path d="M21.7895 22.8432C21.3892 23.358 20.6112 23.358 20.2108 22.8432L12.2555 12.6149C11.7446 11.9581 12.2127 11.001 13.0448 11.001L28.9555 11.001C29.7877 11.001 30.2558 11.9581 29.7449 12.6149L21.7895 22.8432Z" fill="white"/>
<path d="M21 20.5L26.8854 28.1963C27.137 28.5253 26.9024 29 26.4882 29H15.5118C15.0976 29 14.863 28.5253 15.1146 28.1963L21 20.5Z" fill="black"/>
<path d="M21 21.5L15.1146 13.8037C14.863 13.4747 15.0976 13 15.5118 13L26.4882 13C26.9024 13 27.137 13.4747 26.8854 13.8037L21 21.5Z" fill="black"/>
</svg>
