<svg width="37" height="29" viewBox="0 0 37 29" fill="none" xmlns="http://www.w3.org/2000/svg">
<path d="M0.295898 -0.00195312H1.67677C7.10051 -0.00195312 11.4973 4.39485 11.4973 9.81859V28.6239H10.1164C4.69271 28.6239 0.295898 24.2271 0.295898 18.8033V-0.00195312Z" fill="white"/>
<path d="M36.3896 -0.00195312H35.0088C29.585 -0.00195312 25.1882 4.39485 25.1882 9.81859V28.6239H26.5691C31.9928 28.6239 36.3896 24.2271 36.3896 18.8033V-0.00195312Z" fill="white"/>
<path d="M12.6006 14.7637H14.2644C19.6882 14.7637 24.085 19.1605 24.085 24.5842V28.709C23.4995 28.709 22.9476 28.709 22.4205 28.709C16.9968 28.709 12.6006 24.3122 12.6006 18.8884V14.7637Z" fill="white"/>
</svg>
