<svg width="22" height="22" viewBox="0 0 22 22" fill="none" xmlns="http://www.w3.org/2000/svg">
<path d="M4.46008 17.2874L11.7158 6.60645L14.0481 8.19082L6.79239 18.8718C6.35746 19.512 5.48277 19.6764 4.83872 19.2389C4.19467 18.8013 4.02515 17.9276 4.46008 17.2874Z" fill="#9286FF" fill-opacity="0.68"/>
<path d="M13.1145 3.2938L11.5277 5.62962C11.3096 5.95067 11.3946 6.38879 11.7176 6.60818L14.0465 8.19025C14.3695 8.40964 14.8081 8.32723 15.0262 8.00617L16.6129 5.67036C16.831 5.3493 16.746 4.91119 16.4231 4.6918L14.0941 3.10972C13.7712 2.89033 13.3326 2.97275 13.1145 3.2938Z" fill="#232DFC"/>
<path d="M4.6873 2.72387L3.99398 3.00196L4.70498 3.14135C7.21278 3.633 9.59703 4.6277 11.7129 6.06503L12.6178 4.7329L13.5228 3.40077L12.5864 2.96041C10.095 1.78867 7.23263 1.70296 4.6873 2.72387Z" fill="#232DFC"/>
<path d="M20.3144 13.5496L20.3068 14.3183L19.9132 13.6992C18.5422 11.5433 16.7432 9.68932 14.6278 8.25233L15.5442 6.90332L16.4606 5.55431L17.1984 6.2496C19.2117 8.14694 20.3417 10.7942 20.3144 13.5496Z" fill="#232DFC"/>
</svg>
